<svg width="24" height="24" viewBox="0 0 24 24" fill="none" xmlns="http://www.w3.org/2000/svg">
<path d="M20.6933 17.3294C21.0506 15.9959 21.0964 14.5982 20.8271 13.2442C20.5577 11.8902 19.9806 10.6164 19.1402 9.52115C18.2998 8.42593 17.2187 7.53872 15.9806 6.92815C14.7425 6.31757 13.3805 6 12 6C10.6195 6 9.25752 6.31757 8.0194 6.92815C6.78128 7.53872 5.70021 8.42593 4.85982 9.52115C4.01943 10.6164 3.44225 11.8902 3.17293 13.2442C2.90361 14.5982 2.94937 15.9959 3.30667 17.3294" stroke="white" stroke-width="2" stroke-linecap="round"/>
<path d="M12.765 15.5823C13.2524 16.2916 12.9096 17.3738 11.9993 17.9994C11.0889 18.625 9.95579 18.5571 9.46832 17.8477C8.94882 17.0917 7.15542 12.8409 6.0664 10.2114C5.8613 9.71621 6.46697 9.3 6.85575 9.669C8.92004 11.6283 12.2455 14.8263 12.765 15.5823Z" stroke="white" stroke-width="2"/>
<path d="M12 6V8" stroke="white" stroke-width="2" stroke-linecap="round"/>
<path d="M5.63672 8.63574L7.05093 10.05" stroke="white" stroke-width="2" stroke-linecap="round"/>
<path d="M18.3633 8.63574L16.9491 10.05" stroke="white" stroke-width="2" stroke-linecap="round"/>
<path d="M20.6953 17.3291L18.7635 16.8115" stroke="white" stroke-width="2" stroke-linecap="round"/>
<path d="M3.30469 17.3291L5.23654 16.8115" stroke="white" stroke-width="2" stroke-linecap="round"/>
</svg>
