<svg width="30" height="30" viewBox="0 0 30 30" fill="none" xmlns="http://www.w3.org/2000/svg">
<path d="M22.4 14.5243C22.3405 14.3708 22.2513 14.2306 22.1375 14.1118L15.8875 7.86176C15.771 7.74521 15.6326 7.65276 15.4803 7.58968C15.328 7.52661 15.1648 7.49414 15 7.49414C14.6671 7.49414 14.3479 7.62638 14.1125 7.86176C13.996 7.9783 13.9035 8.11667 13.8404 8.26894C13.7773 8.42122 13.7449 8.58443 13.7449 8.74926C13.7449 9.08213 13.8771 9.40138 14.1125 9.63676L18.2375 13.7493H8.75C8.41848 13.7493 8.10054 13.881 7.86612 14.1154C7.6317 14.3498 7.5 14.6677 7.5 14.9993C7.5 15.3308 7.6317 15.6487 7.86612 15.8831C8.10054 16.1176 8.41848 16.2493 8.75 16.2493H18.2375L14.1125 20.3618C13.9953 20.478 13.9023 20.6162 13.8389 20.7685C13.7754 20.9209 13.7428 21.0842 13.7428 21.2493C13.7428 21.4143 13.7754 21.5777 13.8389 21.73C13.9023 21.8823 13.9953 22.0205 14.1125 22.1368C14.2287 22.2539 14.367 22.3469 14.5193 22.4104C14.6716 22.4738 14.835 22.5065 15 22.5065C15.165 22.5065 15.3284 22.4738 15.4807 22.4104C15.633 22.3469 15.7713 22.2539 15.8875 22.1368L22.1375 15.8868C22.2513 15.7679 22.3405 15.6277 22.4 15.4743C22.525 15.1699 22.525 14.8286 22.4 14.5243Z" fill="#C5FD39"/>
</svg>
