<svg width="24" height="24" viewBox="0 0 24 24" fill="none" xmlns="http://www.w3.org/2000/svg">
<path d="M18.4198 6.72038C17.8088 5.31639 16.7543 4.15146 15.4178 3.40411C14.0814 2.65676 12.5368 2.36822 11.0207 2.58269C9.50464 2.79717 8.10069 3.50284 7.02402 4.59156C5.94735 5.68028 5.25735 7.092 5.05977 8.61038C4.22198 8.81444 3.47257 9.28375 2.92321 9.94838C2.37386 10.613 2.05399 11.4374 2.01126 12.2986C1.96854 13.1598 2.20526 14.0118 2.68613 14.7275C3.16701 15.4432 3.86629 15.9844 4.67977 16.2704C4.78348 16.3023 4.89125 16.3192 4.99977 16.3204C5.26498 16.3628 5.53619 16.2982 5.75374 16.1406C5.97128 15.9831 6.11733 15.7456 6.15977 15.4804C6.2022 15.2152 6.13754 14.944 5.98001 14.7264C5.82248 14.5089 5.58498 14.3628 5.31977 14.3204C4.94268 14.1843 4.6152 13.938 4.37982 13.6134C4.14444 13.2889 4.01203 12.9011 3.99977 12.5004C3.99977 11.97 4.21048 11.4612 4.58555 11.0862C4.96063 10.7111 5.46933 10.5004 5.99977 10.5004C6.26498 10.5004 6.51934 10.395 6.70687 10.2075C6.89441 10.02 6.99977 9.7656 6.99977 9.50038C7.00232 8.31766 7.42405 7.17414 8.19004 6.27297C8.95602 5.3718 10.0167 4.77133 11.1835 4.57826C12.3504 4.38518 13.5479 4.61199 14.5633 5.21839C15.5788 5.82479 16.3464 6.77152 16.7298 7.89038C16.7869 8.06222 16.8897 8.21531 17.0271 8.33332C17.1644 8.45132 17.3313 8.5298 17.5098 8.56038C18.1111 8.66922 18.6649 8.95911 19.0969 9.39127C19.529 9.82342 19.8188 10.3772 19.9276 10.9786C20.0363 11.5799 19.9588 12.2002 19.7054 12.7563C19.4521 13.3124 19.0349 13.7778 18.5098 14.0904C18.279 14.223 18.1104 14.4418 18.041 14.6988C17.9716 14.9557 18.0072 15.2296 18.1398 15.4604C18.2724 15.6911 18.4912 15.8597 18.7481 15.9291C19.0051 15.9985 19.279 15.963 19.5098 15.8304C20.268 15.3903 20.8972 14.7586 21.3342 13.9986C21.7712 13.2386 22.0008 12.3771 21.9998 11.5004C21.9967 10.4245 21.6467 9.37832 21.0018 8.51719C20.3568 7.65606 19.4513 7.02593 18.4198 6.72038V6.72038ZM14.9998 15.7204V14.5004C14.9998 13.7047 14.6837 12.9417 14.1211 12.3791C13.5585 11.8165 12.7954 11.5004 11.9998 11.5004C11.2041 11.5004 10.4411 11.8165 9.87845 12.3791C9.31584 12.9417 8.99977 13.7047 8.99977 14.5004V15.6804C8.3384 15.9204 7.78241 16.3852 7.429 16.9935C7.07558 17.6019 6.94723 18.3151 7.06637 19.0085C7.18551 19.7019 7.54457 20.3314 8.08077 20.7869C8.61698 21.2424 9.29623 21.4949 9.99977 21.5004H13.9998C14.7033 21.4949 15.3826 21.2424 15.9188 20.7869C16.455 20.3314 16.814 19.7019 16.9332 19.0085C17.0523 18.3151 16.924 17.6019 16.5705 16.9935C16.2171 16.3852 15.6611 15.9204 14.9998 15.6804V15.7204ZM10.9998 14.5004C10.9998 14.2352 11.1051 13.9808 11.2927 13.7933C11.4802 13.6057 11.7345 13.5004 11.9998 13.5004C12.265 13.5004 12.5193 13.6057 12.7069 13.7933C12.8944 13.9808 12.9998 14.2352 12.9998 14.5004V15.5004H10.9998V14.5004ZM13.9998 19.5004H9.99977C9.73455 19.5004 9.4802 19.395 9.29266 19.2075C9.10512 19.02 8.99977 18.7656 8.99977 18.5004C8.99977 18.2352 9.10512 17.9808 9.29266 17.7933C9.4802 17.6057 9.73455 17.5004 9.99977 17.5004H13.9998C14.265 17.5004 14.5193 17.6057 14.7069 17.7933C14.8944 17.9808 14.9998 18.2352 14.9998 18.5004C14.9998 18.7656 14.8944 19.02 14.7069 19.2075C14.5193 19.395 14.265 19.5004 13.9998 19.5004Z" fill="white"/>
</svg>
