<svg width="24" height="24" viewBox="0 0 24 24" fill="none" xmlns="http://www.w3.org/2000/svg">
<path d="M14.2902 14.1897L11.0002 17.4797L9.71019 16.1897C9.61722 16.0959 9.50662 16.0215 9.38476 15.9708C9.2629 15.92 9.1322 15.8939 9.00019 15.8939C8.86817 15.8939 8.73747 15.92 8.61561 15.9708C8.49375 16.0215 8.38315 16.0959 8.29019 16.1897C8.10393 16.377 7.99939 16.6305 7.99939 16.8947C7.99939 17.1588 8.10393 17.4123 8.29019 17.5997L10.2902 19.5997C10.3831 19.6934 10.4937 19.7678 10.6156 19.8185C10.7375 19.8693 10.8682 19.8954 11.0002 19.8954C11.1322 19.8954 11.2629 19.8693 11.3848 19.8185C11.5066 19.7678 11.6172 19.6934 11.7102 19.5997L15.7102 15.5997C15.8964 15.4123 16.001 15.1588 16.001 14.8947C16.001 14.6305 15.8964 14.377 15.7102 14.1897C15.6172 14.0959 15.5066 14.0215 15.3848 13.9708C15.2629 13.92 15.1322 13.8939 15.0002 13.8939C14.8682 13.8939 14.7375 13.92 14.6156 13.9708C14.4937 14.0215 14.3831 14.0959 14.2902 14.1897V14.1897ZM18.4202 8.31965C17.8085 6.91546 16.7531 5.75065 15.4159 5.00381C14.0787 4.25697 12.5334 3.96932 11.0171 4.18498C9.50069 4.40063 8.09689 5.10768 7.0209 6.19771C5.94492 7.28775 5.25615 8.7006 5.06019 10.2197C4.22618 10.4266 3.48098 10.8966 2.93493 11.5601C2.38887 12.2236 2.071 13.0453 2.02837 13.9035C1.98573 14.7617 2.22061 15.6109 2.69823 16.3252C3.17584 17.0395 3.87079 17.5811 4.68019 17.8697C4.80792 17.9367 4.94864 17.9753 5.09269 17.9828C5.23675 17.9903 5.38072 17.9666 5.51474 17.9132C5.64876 17.8599 5.76964 17.7782 5.86911 17.6737C5.96857 17.5692 6.04425 17.4444 6.09096 17.308C6.13767 17.1715 6.1543 17.0265 6.13971 16.883C6.12512 16.7395 6.07965 16.6008 6.00643 16.4766C5.93321 16.3523 5.83397 16.2453 5.71552 16.163C5.59706 16.0807 5.4622 16.0249 5.32019 15.9997C4.93042 15.8588 4.59405 15.6003 4.35758 15.2599C4.12111 14.9195 3.99622 14.5141 4.00019 14.0997C4.00019 13.5692 4.2109 13.0605 4.58597 12.6854C4.96105 12.3104 5.46975 12.0997 6.00019 12.0997C6.2654 12.0997 6.51976 11.9943 6.70729 11.8068C6.89483 11.6192 7.00019 11.3649 7.00019 11.0997C7.00508 9.91778 7.42848 8.77585 8.19526 7.87647C8.96204 6.97708 10.0226 6.37839 11.1888 6.18662C12.3551 5.99485 13.5515 6.22239 14.5659 6.82888C15.5803 7.43536 16.3471 8.38158 16.7302 9.49965C16.7888 9.66963 16.8923 9.82064 17.0295 9.93679C17.1668 10.0529 17.3328 10.1299 17.5102 10.1597C18.1763 10.2855 18.7801 10.6333 19.2232 11.1462C19.6664 11.6591 19.9228 12.307 19.9506 12.9843C19.9784 13.6616 19.7761 14.3283 19.3765 14.8759C18.9769 15.4234 18.4037 15.8196 17.7502 15.9997C17.485 16.0328 17.2438 16.17 17.0797 16.3809C16.9156 16.5919 16.842 16.8594 16.8752 17.1247C16.9083 17.3899 17.0455 17.6311 17.2565 17.7951C17.4674 17.9592 17.735 18.0328 18.0002 17.9997H18.2502C19.3026 17.7216 20.2355 17.1076 20.9072 16.2511C21.5789 15.3946 21.9528 14.3423 21.972 13.2539C21.9913 12.1656 21.6548 11.1007 21.0138 10.221C20.3727 9.34125 19.4621 8.69475 18.4202 8.37965V8.31965Z" fill="white"/>
</svg>
