<svg width="24" height="24" viewBox="0 0 24 24" fill="none" xmlns="http://www.w3.org/2000/svg">
<path d="M5.00013 18.0002C4.80235 18.0002 4.60901 18.0589 4.44456 18.1688C4.28012 18.2786 4.15194 18.4348 4.07625 18.6175C4.00057 18.8003 3.98076 19.0013 4.01935 19.1953C4.05793 19.3893 4.15318 19.5675 4.29303 19.7073C4.43288 19.8472 4.61106 19.9424 4.80504 19.981C4.99903 20.0196 5.20009 19.9998 5.38282 19.9241C5.56554 19.8484 5.72172 19.7202 5.8316 19.5558C5.94149 19.3913 6.00013 19.198 6.00013 19.0002C6.00013 18.735 5.89478 18.4807 5.70724 18.2931C5.5197 18.1056 5.26535 18.0002 5.00013 18.0002ZM19.0001 14.0002H12.0001C11.7349 14.0002 11.4806 14.1056 11.293 14.2931C11.1055 14.4807 11.0001 14.735 11.0001 15.0002C11.0001 15.2654 11.1055 15.5198 11.293 15.7073C11.4806 15.8949 11.7349 16.0002 12.0001 16.0002H19.0001C19.2654 16.0002 19.5197 16.1056 19.7072 16.2931C19.8948 16.4807 20.0001 16.735 20.0001 17.0002C20.0001 17.2654 19.8948 17.5198 19.7072 17.7073C19.5197 17.8949 19.2654 18.0002 19.0001 18.0002C18.7349 18.0002 18.4806 18.1056 18.293 18.2931C18.1055 18.4807 18.0001 18.735 18.0001 19.0002C18.0001 19.2654 18.1055 19.5198 18.293 19.7073C18.4806 19.8949 18.7349 20.0002 19.0001 20.0002C19.7958 20.0002 20.5588 19.6842 21.1215 19.1215C21.6841 18.5589 22.0001 17.7959 22.0001 17.0002C22.0001 16.2046 21.6841 15.4415 21.1215 14.8789C20.5588 14.3163 19.7958 14.0002 19.0001 14.0002ZM14.0001 11.0002C14.0001 11.2654 14.1055 11.5198 14.293 11.7073C14.4806 11.8949 14.7349 12.0002 15.0001 12.0002H19.0001C19.7958 12.0002 20.5588 11.6842 21.1215 11.1215C21.6841 10.5589 22.0001 9.79588 22.0001 9.00023C22.0001 8.73501 21.8948 8.48066 21.7072 8.29312C21.5197 8.10558 21.2654 8.00023 21.0001 8.00023C20.7349 8.00023 20.4806 8.10558 20.293 8.29312C20.1055 8.48066 20.0001 8.73501 20.0001 9.00023C20.0001 9.26544 19.8948 9.5198 19.7072 9.70733C19.5197 9.89487 19.2654 10.0002 19.0001 10.0002H15.0001C14.7349 10.0002 14.4806 10.1056 14.293 10.2931C14.1055 10.4807 14.0001 10.735 14.0001 11.0002ZM10.0001 15.0002C10.0001 14.735 9.89478 14.4807 9.70724 14.2931C9.5197 14.1056 9.26535 14.0002 9.00013 14.0002H6.00013C5.4697 14.0002 4.96099 13.7895 4.58592 13.4144C4.21085 13.0394 4.00013 12.5307 4.00013 12.0002C4.00013 11.4698 4.21085 10.9611 4.58592 10.586C4.96099 10.2109 5.4697 10.0002 6.00013 10.0002C6.26535 10.0002 6.5197 9.89487 6.70724 9.70733C6.89478 9.5198 7.00013 9.26544 7.00013 9.00023C7.00269 7.8175 7.42442 6.67398 8.1904 5.77281C8.95639 4.87164 10.017 4.27118 11.1839 4.0781C12.3507 3.88502 13.5483 4.11183 14.5637 4.71823C15.5791 5.32464 16.3467 6.27137 16.7301 7.39023C16.815 7.64218 16.9965 7.8501 17.2347 7.96825C17.4728 8.0864 17.7482 8.1051 18.0001 8.02023C18.2521 7.93536 18.46 7.75387 18.5782 7.5157C18.6963 7.27753 18.715 7.00218 18.6301 6.75023C18.1209 5.25285 17.1197 3.97205 15.7894 3.1165C14.4592 2.26095 12.8785 1.88109 11.3048 2.03881C9.7311 2.19653 8.25718 2.88253 7.12321 3.98504C5.98924 5.08755 5.26206 6.54158 5.06013 8.11023C4.10672 8.33855 3.27036 8.90906 2.70987 9.71342C2.14939 10.5178 1.90382 11.5 2.0198 12.4734C2.13578 13.4469 2.60523 14.3439 3.339 14.9941C4.07277 15.6442 5.01976 16.0023 6.00013 16.0002H9.00013C9.26535 16.0002 9.5197 15.8949 9.70724 15.7073C9.89478 15.5198 10.0001 15.2654 10.0001 15.0002ZM10.0001 11.0002C10.0001 11.198 10.0588 11.3913 10.1687 11.5558C10.2785 11.7202 10.4347 11.8484 10.6175 11.9241C10.8002 11.9998 11.0012 12.0196 11.1952 11.981C11.3892 11.9424 11.5674 11.8472 11.7072 11.7073C11.8471 11.5675 11.9423 11.3893 11.9809 11.1953C12.0195 11.0013 11.9997 10.8003 11.924 10.6175C11.8483 10.4348 11.7202 10.2786 11.5557 10.1688C11.3913 10.0589 11.1979 10.0002 11.0001 10.0002C10.7349 10.0002 10.4806 10.1056 10.293 10.2931C10.1055 10.4807 10.0001 10.735 10.0001 11.0002ZM14.0001 18.0002H9.00013C8.73492 18.0002 8.48056 18.1056 8.29303 18.2931C8.10549 18.4807 8.00013 18.735 8.00013 19.0002C8.00013 19.2654 8.10549 19.5198 8.29303 19.7073C8.48056 19.8949 8.73492 20.0002 9.00013 20.0002H14.0001C14.2654 20.0002 14.5197 20.1056 14.7072 20.2931C14.8948 20.4807 15.0001 20.735 15.0001 21.0002C15.0001 21.2654 15.1055 21.5198 15.293 21.7073C15.4806 21.8949 15.7349 22.0002 16.0001 22.0002C16.2654 22.0002 16.5197 21.8949 16.7072 21.7073C16.8948 21.5198 17.0001 21.2654 17.0001 21.0002C17.0001 20.2046 16.6841 19.4415 16.1215 18.8789C15.5588 18.3163 14.7958 18.0002 14.0001 18.0002V18.0002Z" fill="white"/>
</svg>
